<?xml version="1.0" standalone="no"?>
<!DOCTYPE svg PUBLIC "-//W3C//DTD SVG 20010904//EN"
 "http://www.w3.org/TR/2001/REC-SVG-20010904/DTD/svg10.dtd">
<svg version="1.0" xmlns="http://www.w3.org/2000/svg"
 width="700.000000pt" height="700.000000pt" viewBox="0 0 700.000000 700.000000"
 preserveAspectRatio="xMidYMid meet">
<metadata>
Created by potrace 1.11, written by Peter Selinger 2001-2013
</metadata>
<g transform="translate(0.000000,700.000000) scale(0.100000,-0.100000)"
fill="#000000" stroke="none">
<path d="M4120 6721 c-572 -237 -1090 -643 -1436 -1126 -211 -294 -353 -644
-424 -1039 -61 -339 -67 -800 -16 -1148 7 -49 9 -88 5 -88 -13 0 -129 99 -204
175 -183 182 -308 407 -361 650 -24 108 -29 332 -10 440 20 110 20 110 1 95
-27 -22 -121 -182 -198 -336 -190 -380 -309 -727 -369 -1079 -18 -107 -22
-170 -22 -355 0 -295 25 -491 99 -747 52 -183 97 -301 185 -478 268 -542 654
-929 1215 -1215 251 -128 502 -198 832 -230 204 -20 696 44 933 122 354 115
680 325 975 629 312 321 498 663 571 1049 14 72 18 144 18 300 0 222 -10 309
-70 660 -90 521 -99 610 -91 855 10 277 50 537 111 717 l33 97 -36 -19 c-111
-57 -293 -210 -400 -335 -100 -117 -123 -150 -383 -579 -121 -199 -224 -365
-228 -370 -5 -5 -2 13 6 40 49 162 74 477 55 686 -33 354 -117 607 -333 998
-228 413 -328 657 -363 885 -35 231 -30 583 11 738 7 28 12 52 11 53 -1 2 -54
-19 -117 -45z m-443 -2401 c416 -515 620 -1075 599 -1640 -6 -176 -26 -297
-71 -440 -56 -176 -163 -366 -268 -478 -43 -45 -48 -53 -27 -47 47 14 171 85
222 127 146 122 273 372 294 581 3 37 11 67 16 67 21 0 209 -200 253 -270 134
-209 208 -494 206 -795 -1 -155 -20 -284 -57 -380 l-17 -45 -112 0 -112 0 -50
-78 c-58 -88 -166 -195 -257 -254 -139 -90 -336 -166 -491 -188 -92 -13 -376
-13 -490 0 -299 35 -635 156 -755 273 -50 49 -150 206 -150 235 0 9 -34 12
-115 12 -135 0 -123 -10 -160 142 -50 200 -49 446 1 647 79 318 176 472 574
911 249 275 308 349 392 495 198 340 316 825 318 1303 l1 107 85 -90 c48 -49
124 -137 171 -195z"/>
</g>
</svg>
